<svg xmlns="http://www.w3.org/2000/svg" viewBox="0 0 100 100" width="100" height="100" role="img" aria-label="Loricatus">
  <rect width="100" height="100" rx="22" fill="#2B3B46"/>
  <g fill="#C7D540" transform="translate(50 50) scale(0.7731) translate(-235.275 -46.375)">
    <path d="M211,81.94v9a2.45,2.45,0,0,1-.08.72,1.55,1.55,0,0,1-2.41.77l-.35-.32Q199.09,83,190,73.86a1.65,1.65,0,0,1-.56-1.68A1.52,1.52,0,0,1,190.87,71h.48l17.85.09a1.74,1.74,0,0,1,1.31.47,1.63,1.63,0,0,1,.47,1.22c0,1,0,2,0,3v6.17Z"/>
    <path d="M234.65,82.07c.06,2.9.11,5.8.17,8.69,0,.13,0,.27,0,.39a1.46,1.46,0,0,1-.92,1.41,1.5,1.5,0,0,1-1.66-.27,1.62,1.62,0,0,1-.19-.18L213.75,73.92a1.66,1.66,0,0,1-.58-1.35,1.51,1.51,0,0,1,1.27-1.39,5.44,5.44,0,0,1,.57,0l17.59.17H233A1.58,1.58,0,0,1,234.49,73l.06,3.13c0,2,.07,4,.1,6Z"/>
    <path d="M200,47.41l8.33.34c.33,0,.67,0,1,0a1.59,1.59,0,0,1,1.49,1.62c0,.7,0,1.39,0,2.09l.09,15.42c0,.12,0,.24,0,.35a1.41,1.41,0,0,1-.9,1.36,1.48,1.48,0,0,1-1.63-.23c-.11-.09-.21-.2-.32-.3l-16-16.06c-.76-.77-1.51-1.56-2.26-2.35a1.54,1.54,0,0,1-.46-1.42A1.46,1.46,0,0,1,190.93,47c.92,0,1.83.07,2.74.11l6.34.27Z"/>
    <path d="M258,82.24c.17,2.46.32,4.84.48,7.22,0,.54.07,1.07.11,1.61a1.36,1.36,0,0,1-.78,1.46,1.52,1.52,0,0,1-1.71-.22,2.09,2.09,0,0,1-.22-.2c-6.23-5.85-12.35-11.81-18.43-17.81-.12-.12-.25-.24-.36-.37a1.44,1.44,0,0,1-.31-1.65,1.39,1.39,0,0,1,1.41-.89c2.26,0,4.52.07,6.77.12,3.38.06,6.75.14,10.12.22h.74a1.64,1.64,0,0,1,1.62,1.6c.18,2.81.35,5.61.53,8.41,0,.19,0,.38,0,.49"/>
    <path d="M210.66,35.35c.05,3.36.08,6,.11,8.63,0,.12,0,.23,0,.35a1.3,1.3,0,0,1-.7,1.3,1.53,1.53,0,0,1-1.61-.06,2.83,2.83,0,0,1-.43-.36c-4.36-4.32-8.65-8.7-12.81-13.22-1.81-2-3.57-4-5.35-5.95a1.89,1.89,0,0,1-.47-1,1.31,1.31,0,0,1,1.41-1.59c.72.06,1.43.19,2.15.28L201.65,25l7.1,1,.39.07a1.8,1.8,0,0,1,1.38,1.68c0,2.8.1,5.59.14,7.66"/>
    <path d="M270.32,72.18l7.49.32a1.75,1.75,0,0,1,1.7,1.56l2.4,15c.11.67.21,1.34.34,2a1.3,1.3,0,0,1-1.78,1.53,2.49,2.49,0,0,1-.87-.54c-2.76-2.41-5.55-4.79-8.26-7.25-3.75-3.41-7.44-6.87-11.16-10.32a2,2,0,0,1-.61-.88,1.3,1.3,0,0,1,1.23-1.73c.78,0,1.56,0,2.34.06l7.18.24"/>
    <path d="M210.19,15.1c.07,2.78.15,5.26.21,7.73a1.21,1.21,0,0,1-1.61,1.3,2,2,0,0,1-1-.58c-.93-1-1.88-2-2.81-3q-5.21-5.52-10-11.43c-1.78-2.22-3.46-4.53-5.18-6.8a1.81,1.81,0,0,1-.41-1.55A1,1,0,0,1,190.66,0l.41.14c4.88,1.78,9.8,3.44,14.74,5,.83.27,1.66.52,2.49.78a2.32,2.32,0,0,1,1.06.64,1.68,1.68,0,0,1,.54,1.19c.09,2.53.2,5.07.29,7.29"/>
    <path d="M224.44,48.43l7.95.42A1.53,1.53,0,0,1,234,50.54c.05,1.93.09,3.85.13,5.78q.11,4.51.19,9a2.48,2.48,0,0,1-.07.72,1.41,1.41,0,0,1-2,.74,2.12,2.12,0,0,1-.48-.37q-8.06-7.92-16.09-15.86a1.63,1.63,0,0,1-.54-.87,1.34,1.34,0,0,1,1.26-1.63,7.49,7.49,0,0,1,.82,0l7.25.33Z"/>
    <path d="M256.45,58.15c.11,2,.23,3.93.35,5.9a1.18,1.18,0,0,1-.53,1.16,1.28,1.28,0,0,1-1.36.05,2.5,2.5,0,0,1-.57-.46q-6.27-6.07-12.52-12.17c-.32-.31-.65-.62-1-.94a2.4,2.4,0,0,1-.37-.53,1.15,1.15,0,0,1,1.06-1.62c.43,0,.87,0,1.3.05l4.38.31,6.57.51a7.45,7.45,0,0,1,.95.09A1.45,1.45,0,0,1,256.09,52c.08,1.09.13,2.19.2,3.29s.1,1.94.16,2.9"/>
    <path d="M233.57,36.27c.06,1.68.1,3.52.2,5.36A1.25,1.25,0,0,1,232,42.89a1.84,1.84,0,0,1-.65-.41l-8.35-8-5.22-5a3.64,3.64,0,0,1-.48-.56,1,1,0,0,1,.88-1.67,9.38,9.38,0,0,1,1.29.12l7.2.93,5.2.68a1.76,1.76,0,0,1,1,.5,1.38,1.38,0,0,1,.41,1c.07,1.88.15,3.76.23,5.8"/>
    <path d="M278,63.94a.94.94,0,0,1-1.28,1,2,2,0,0,1-.77-.46q-2.34-2.17-4.65-4.38-3.39-3.24-6.75-6.5a2.88,2.88,0,0,1-.41-.45A1,1,0,0,1,264.1,52a1,1,0,0,1,1-.47l2.46.27,6.07.75c.6.08,1.21.16,1.81.26a1.51,1.51,0,0,1,1.31,1.4q.61,4.69,1.21,9.39c0,.12,0,.26,0,.38"/>
    <path d="M255.42,39.05c.06,1,.14,2.06.18,3.08a1.05,1.05,0,0,1-1.6,1.09,2.47,2.47,0,0,1-.63-.44c-2.31-2.16-4.6-4.33-6.91-6.48-1.4-1.31-2.83-2.61-4.25-3.91a4.36,4.36,0,0,1-.43-.43.91.91,0,0,1-.19-1,.85.85,0,0,1,.89-.49c.63.05,1.24.14,1.86.22l5.28.75c1.37.19,2.75.39,4.12.6a1.47,1.47,0,0,1,1.34,1.51c.11,1.85.23,3.7.34,5.54"/>
    <path d="M232.83,21.06c0,.17,0,.34,0,.51a.76.76,0,0,1-.7.88,1.8,1.8,0,0,1-1.53-.47c-1-.88-2-1.76-2.92-2.66-2.87-2.69-5.73-5.4-8.6-8.1-.16-.15-.32-.3-.46-.46a2.69,2.69,0,0,1-.3-.37.79.79,0,0,1-.07-.82.71.71,0,0,1,.75-.34,3.16,3.16,0,0,1,.6.11q5.56,1.47,11.15,3a3.18,3.18,0,0,1,.83.35,1.34,1.34,0,0,1,.7,1.17c.17,2.41.36,4.82.54,7.23h0"/>
    <path d="M275.67,43.85a.71.71,0,0,1-.69.76,1.47,1.47,0,0,1-1.21-.49c-.75-.75-1.49-1.5-2.25-2.23l-6.59-6.38a2.48,2.48,0,0,1-.44-.53.72.72,0,0,1,.56-1.13,1.55,1.55,0,0,1,.43,0l8.28,1.52a1.43,1.43,0,0,1,1.3,1.48c.19,2.27.4,4.53.59,6.79,0,.08,0,.15,0,.2"/>
    <path d="M254.38,23.6c0,.13,0,.26,0,.39a.66.66,0,0,1-.66.79,1.64,1.64,0,0,1-1.12-.25,2.12,2.12,0,0,1-.38-.29l-9.2-7.54c-.19-.16-.39-.31-.56-.48a.64.64,0,0,1-.24-.66.63.63,0,0,1,.63-.38,2.81,2.81,0,0,1,.65.07l9.05,1.81a3.13,3.13,0,0,1,.69.24,1.14,1.14,0,0,1,.69,1c.12,1.76.28,3.52.43,5.28h0"/>
    <path d="M274.42,26.12a.63.63,0,0,1-.52.7,1.33,1.33,0,0,1-1.22-.3c-.2-.16-.38-.34-.58-.52-2-1.87-4.13-3.62-6.26-5.36a1.75,1.75,0,0,1-.32-.29.56.56,0,0,1,.28-1,1.78,1.78,0,0,1,.65,0c.84.1,1.69.23,2.53.34,1.1.15,2.2.29,3.31.42.29,0,.58,0,.86.11a2.81,2.81,0,0,1,.68.26.92.92,0,0,1,.45.84c0,.79,0,1.59,0,2.38"/>
  </g>
</svg>
